<svg version="1.2" xmlns="http://www.w3.org/2000/svg" viewBox="0 0 717 708" width="717" height="708">
	<title>favicon_new</title>
	<style>
		.s0 { opacity: 1;fill: #002537 } 
		.s1 { opacity: 1;fill: #fdaa2d } 
	</style>
	<g id="Background">
		<path id="Path 0" fill-rule="evenodd" class="s0" d="m324.4 2h6.3c3.5 0 14.3 1.1 24.1 2.5 9.7 1.3 29.2 3.8 43.2 5.5 14 1.7 29.1 3.6 33.5 4.2 5.2 0.8 8.6 1.8 9.8 3 1 1.1 1.7 3.3 1.7 5.5 0 2.1 1.3 16.3 3 31.6 1.6 15.2 3 29.3 3 31.2 0 1.9 0.8 5.3 1.8 7.6 1.4 3.4 3.4 5.2 20.7 16.6l-14 3.7c-7.7 2.1-18.5 5.6-24 7.7-5.5 2.2-13.6 6-18 8.5-5.2 3-8.7 4.4-10 4.1-1.1-0.3-5.6-1.5-10-2.7-4.4-1.1-13.9-3-21-4-9-1.4-18.2-2-29.7-2-10 0-21.4 0.6-28 1.6-6.2 0.9-15.6 2.7-20.8 4-5.2 1.4-13.5 3.9-18.5 5.5-4.9 1.7-15.7 6.4-24 10.4-8.2 4-19.7 10.5-25.5 14.3-5.8 3.9-14.1 9.9-18.5 13.5-4.4 3.5-13.1 11.8-19.4 18.3-6.2 6.5-14.5 16.2-18.5 21.4-3.9 5.2-10 14.2-13.4 20-3.5 5.8-8.5 15-11.2 20.5-2.6 5.5-6.4 14.7-8.5 20.5-2.1 5.8-5 15.4-6.6 21.5-1.5 6.1-3.5 16.4-4.4 23-1.4 9.5-1.6 16.6-1.2 34.5 0.4 19.2 0.9 24.4 3.2 35 1.4 6.9 4.5 18.4 6.9 25.5 2.4 7.1 6.4 17.3 8.8 22.5 2.4 5.2 6.3 12.5 8.6 16.2 2.3 3.8 4.2 7.1 4.2 7.5 0 0.5-7 7.3-15.6 15.3-8.6 8-23.1 22.2-32.3 31.5-9.1 9.4-18.7 20.2-21.3 24-2.5 3.9-6.6 11.3-13.5 26l-6.4-7.6c-3.5-4.2-10-12.7-14.4-19-4.3-6.3-8.4-12.8-9-14.6-0.9-2.9-0.7-3.7 2.7-8.5 2.1-2.9 9.2-11.6 15.9-19.3 6.6-7.7 14.9-17.6 18.4-22 3.4-4.4 6.7-9 7.4-10.3 0.9-1.9 0.2-4.5-4.8-17.5-3.3-8.3-7.5-20.4-9.5-26.7-1.9-6.3-3.9-13-5.1-18.2l-31-10.9c-17-6-32.7-11.7-38.8-14.4l0.6-7c0.3-3.9 2.6-23.9 5.2-44.5 2.5-20.6 5.3-43.1 6.1-50 1.1-9.1 1.9-12.9 3.2-14.1 1.2-1.2 9.5-2.6 31.2-5.3 16.2-2.1 31.7-4.1 34.4-4.4 4.2-0.6 5.2-1.2 7.1-4.2 1.2-1.9 5.3-9.6 9-17 3.7-7.4 9.4-18.3 12.6-24.3 3.3-5.9 5.9-11.1 5.9-11.7 0-0.6-6.8-14.8-15-31.8-8.3-16.9-15-31.5-15-32.5 0-0.9 3.7-5 8.3-9.1 4.5-4.1 11.1-9.8 14.7-12.8 3.6-3 15.3-12.6 26-21.5 10.7-8.8 24.2-19.7 29.9-24.1 5.7-4.5 11.1-8.2 12-8.2 0.9 0 8.4 5.1 16.6 11.3 8.3 6.2 17.5 13 20.5 15.1 3 2.2 9.1 6.5 21.5 15.4l16-5.4c8.8-2.9 22.7-7 30.9-9.1 8.2-2.1 15.2-4.3 15.7-4.8 0.4-0.5 5.3-12.7 10.9-27 5.5-14.3 11.3-29 12.7-32.8zm312.3 271.1c0.2-0.1 4 1.9 8.6 4.2 5.2 2.8 12.2 5.3 19.2 7 6.1 1.5 18.2 4.2 27 6.1 8.8 1.8 17.4 4 22 6.2l-0.3 56.5c-0.3 43.2-0.6 56.9-1.6 58.4-1 1.6-8.1 3.9-31.7 10.4-16.7 4.6-31.8 9-33.6 9.8-2 0.8-4 2.8-5.1 5.1-1.1 2.1-4 9.1-6.7 15.7-2.6 6.6-6.7 16.3-9.2 21.5-2.4 5.3-4.6 10.4-4.9 11.5-0.4 1.4 2.3 7.3 8.2 18 4.9 8.8 11.8 21 15.4 27 3.7 6.1 8.2 13.4 13.5 21.5l-3 4.3c-1.6 2.3-12.7 14.3-24.6 26.7-11.9 12.4-28.3 28.7-36.5 36.2-8.2 7.5-16.4 14.9-18.4 16.6-1.9 1.6-4.4 3.3-5.5 3.6-1.4 0.5-5.3-1.4-13.5-6.5-6.3-3.9-18.9-11.5-28-16.9-9-5.3-17.6-10.3-19-11-2.2-1-3.7-0.6-13 3.6-5.7 2.6-18.9 8.3-29.2 12.6-10.3 4.3-19.2 7.8-19.8 7.8-0.5 0-1.2 0.8-1.4 1.8-0.3 1-4.1 16.5-8.5 34.5-4.4 18-8.7 34.2-9.4 36-1.1 2.8-2 3.4-6.2 4.1-2.7 0.5-21.8 0.8-42.5 0.8-20.6-0.1-45.3-0.6-55-1.1-13.2-0.6-17.7-1.2-18.5-2.3-0.5-0.8-2.5-7.9-4.3-15.8-1.9-8-5.1-21.7-7.3-30.5-2.1-8.7-4.3-17.6-4.9-19.7-0.5-2.1-1.4-3.8-2-3.8-0.5 0-9-2.9-18.7-6.5-9.8-3.7-18.1-6.9-18.6-7.3-0.4-0.4 9.5-11.2 45-47.7l10.9 3.8c6 2.1 15.2 4.6 20.4 5.7 5.3 1.1 14 2.4 19.5 3 5.5 0.6 16.1 1.1 23.5 1 7.5-0.1 19.6-1 27-2.1 7.5-1.1 19.2-3.5 26-5.4 6.9-1.9 15-4.3 18-5.5 3.1-1.1 8.9-3.4 13-5.2 4.2-1.7 11.4-5.1 16-7.6 4.7-2.5 11.5-6.3 15-8.4 3.6-2.2 11.7-7.9 18-12.6 6.4-4.8 16-12.9 21.4-18.2 5.5-5.2 13.5-13.7 17.9-19 4.4-5.2 11.5-14.9 15.9-21.5 4.4-6.6 10.9-17.8 14.4-25 3.5-7.1 8.4-19 10.8-26.5 2.5-7.4 5.4-17.7 6.5-23 1.1-5.2 2.7-14.7 3.6-21.2 0.8-6.5 1.5-14.5 1.5-17.8 0-5.7 0.2-6.1 4.9-11.2 2.6-2.9 6.6-7.7 8.8-10.8 2.2-3 6.4-9.7 9.2-15 2.8-5.2 6.8-14.2 9-20 2.1-5.7 5.4-16.2 7.1-23.2 1.8-7 3.5-12.8 3.7-12.8zm-72.9-9c0.1 0 0.2 0.2 0.2 0.3 0 0.1-4.1 4.3-18.5 18.2l9-9.2c5-5.1 9.1-9.3 9.3-9.3zm-214.8 36c0.3 0-4.9 5.5-11.5 12.1-6.6 6.6-12.2 12-12.5 12-0.2 0 4.9-5.4 11.5-12 6.6-6.6 12.2-12.1 12.5-12.1zm55.8 137c0.1 0 0.2 0.2 0.2 0.3 0.1 0.1-3 3.2-13.5 13.2l6.5-6.7c3.6-3.7 6.6-6.8 6.8-6.8zm-53 54c0.1 0 0.2 0.2 0.2 0.3 0 0.1-4.6 4.7-20.5 20.2l10-10.2c5.5-5.6 10.1-10.3 10.3-10.3zm-22 23c0.1 0 0.2 0.2 0.2 0.3 0 0.1-4.6 4.7-20.5 20.2l10-10.2c5.5-5.6 10.1-10.3 10.3-10.3z"/>
		<path id="Path 1" class="s1" d="m469.5 124.6c-4.4 0.8-12.1 2.8-17 4.5-4.9 1.7-14.2 5.7-20.5 9-6.3 3.2-15.8 9.1-21 13-5.2 3.9-11.2 8.7-13.3 10.7-2.2 2.1-6.5 6.9-9.6 10.7-3.2 3.9-8.5 11.5-11.8 17-3.3 5.5-7 12.3-8.3 15-1.2 2.8-3.3 8.2-4.6 12-1.4 3.9-3.3 10.6-4.3 15-1.1 4.4-2.2 12.7-2.6 18.5-0.3 5.8-0.8 12-1 13.8-0.3 1.7-0.2 3.2 0.3 3.2 0.4 0 0.8 1.2 0.8 2.8 0.1 1.5 0.4 3.8 0.8 5.2 0.3 1.4 0.7 4.5 0.7 7 0.1 2.5-0.2 5.6-0.6 7-0.4 1.4-1.5 3.6-2.5 5-1 1.4-14.3 14.6-29.6 29.5-15.4 14.9-38.5 37.1-51.4 49.5-12.9 12.4-26.7 25.5-30.5 29.1-3.8 3.6-16.9 15.9-29 27.4-12.1 11.6-29.4 28-38.5 36.5-9.1 8.5-20.1 18.9-24.5 23-4.4 4.2-13.4 12.7-20 19-6.6 6.3-16.5 16.2-22 22-7 7.4-11.2 12.8-13.9 18-2.2 4.1-5 10.6-6.3 14.5-1.3 3.9-2.6 10.6-2.9 15-0.4 4.6-0.1 11.4 0.6 16 0.7 4.4 1.3 9 1.4 10.2 0 1.1 0.5 1.8 1.1 1.5 0.6-0.4 0.7 0 0.2 1.1-0.4 0.9-0.2 1.9 0.3 2.2 0.5 0.3 2 2.6 3.2 5.3 1.3 2.6 3.4 6.3 4.7 8.2 1.4 1.9 5 6.4 8.1 9.9 3 3.5 8 8.3 11 10.7 3 2.3 8.9 5.8 13 7.8 4.1 1.9 10.2 4.3 13.5 5.1 3.3 0.9 9.6 1.9 14 2.2 5.1 0.3 11.1 0 16.5-1 4.7-0.8 11.2-2.5 14.5-3.8 3.3-1.2 9.2-4.4 13-7 4.2-2.9 11.4-9.5 18-16.7 6.1-6.5 17.5-18.8 25.4-27.3 8-8.5 22.1-23.3 31.5-32.9 9.4-9.7 26.1-27 37.1-38.5 10.9-11.6 41.6-43.1 68-70 26.4-26.9 51.9-53.1 56.7-58 4.9-5.1 10.8-10.2 13.7-11.7 2.8-1.6 6.8-2.8 8.8-2.9 2.1 0 5.8 0.4 8.3 1 2.5 0.6 6.2 1.1 8.2 1.1 2.1 0 3.6 0.3 3.4 0.8-0.2 0.4 4.5 0.7 10.4 0.7 5.9 0 10.7-0.2 10.5-0.5-0.2-0.3 3.3-1.1 7.8-1.9 4.5-0.8 9.1-1.6 10.2-1.7 1.1-0.1 6-1.6 11-3.4 5-1.8 12.4-4.8 16.5-6.7 4.1-1.9 11.3-6 16-9.1 4.7-3.1 12.3-9.3 16.8-13.7 4.6-4.4 10.8-10.9 13.7-14.5 3-3.6 7.7-10.3 10.5-15 2.8-4.7 6.8-13 9-18.5 2.1-5.5 4.9-14.1 6-19 1.2-4.9 2.5-14.4 3-21 0.6-8.5 0.4-14.9-0.5-22-0.7-5.5-1.8-12-2.5-14.5-0.7-2.5-1.8-5.7-2.6-7.2-0.8-1.6-2.3-3-3.4-3.3-1.1-0.3-2.8-0.1-3.8 0.4-0.9 0.5-17 16.2-35.7 34.9-18.7 18.7-36.3 35.4-39 37.1-3 1.9-6.3 3.1-8.2 3.1-1.8 0-7-1.1-11.5-2.5-4.6-1.3-10.2-3-12.6-3.7-2.4-0.7-3.9-1.7-3.5-2.2 0.5-0.5-0.3-0.5-1.7 0-2 0.6-2.3 0.5-1.5-0.6 0.8-1.1 0.6-1.3-0.5-0.8-0.8 0.4-5.3-0.5-10-1.9-4.7-1.4-9.9-3.5-11.5-4.7-1.6-1.3-3.8-4-4.7-6.2-0.9-2.1-3.7-12.6-6.2-23.1-2.5-10.6-4.6-21.3-4.6-23.8 0-2.5 0.7-6 1.6-7.7 0.9-1.8 8.7-10.4 17.3-19 8.6-8.7 16-15.4 16.6-15 0.6 0.4 0.7 0.2 0.2-0.6-0.4-0.6-0.1-1.6 0.5-2.2 0.7-0.5 1.7-0.7 2.1-0.2 0.5 0.4 0.7 0.3 0.6-0.3-0.2-0.6 3.4-4.6 8-9 4.6-4.4 12.4-12.5 17.3-18 4.9-5.5 9.6-11.2 10.4-12.7 0.8-1.6 1.3-4 1.1-5.5-0.1-2.1-1.2-3.3-4.2-5-2.2-1.2-8-3.3-13-4.8-8-2.3-10.7-2.5-24-2.4-8.3 0-18.6 0.7-23 1.5z"/>
		<path id="Path 2" class="s0" d="m159.5 545.9c-1.7 0.4-4.3 1.5-6 2.4-1.7 0.8-4.9 3.4-7.3 5.6-2.5 2.4-5.6 7.1-7.6 11.4-1.9 3.9-3.9 9.5-4.6 12.2-0.8 3.7-0.9 6.5 0 11 0.6 3.3 2.2 7.7 3.5 9.8 1.4 2 4 4.8 5.7 6.2 1.8 1.3 5.7 3.4 8.5 4.5 3.9 1.5 7.6 2 14.3 2 6.4 0 10.5-0.6 14.2-1.9 3.8-1.4 6.9-3.7 10.8-7.8 3.8-3.9 6.3-7.7 7.9-11.8 1.3-3.6 2.3-8.4 2.4-12 0.1-4.1-0.5-7.4-1.9-10.5-1.2-2.5-4.1-6.7-6.6-9.5-2.5-2.7-6.9-6.2-9.9-7.7-3-1.5-7.9-3.2-10.9-3.8-3-0.6-6.4-1-7.5-0.9-1.1 0.1-3.3 0.4-5 0.8z"/>
	</g>
</svg>