<svg version="1.2" xmlns="http://www.w3.org/2000/svg" viewBox="0 0 1024 1024" width="1024" height="1024">
	<title>logo</title>
	<style>
		.s0 { fill: #06202b } 
		.s1 { fill: #feab24 } 
		.s2 { fill: #ffc549 } 
	</style>
	<g id="Background">
		<path id="Path 0" class="s0" d="m480.5 112.2c-19.7 0.6-27.3 1.1-28.1 2-0.6 0.7-3.5 8.7-6.4 17.8-2.8 9.1-5.5 16.8-5.8 17.2-0.4 0.4-6.3 2.1-13.2 3.8-6.9 1.7-15.6 4-19.5 5.1-3.9 1.1-9.4 2.9-12.3 4l-5.2 1.9c-6.6-5.3-13-10.9-18.5-15.9-8.6-7.8-10.5-9.1-13.5-9-2.6 0-6.9 2.1-17 8.2-7.4 4.6-16.6 10-20.5 12.2-3.9 2.1-18.9 10.8-33.4 19.4-16.5 9.8-26.6 16.3-27.1 17.6-0.3 1.1 1 9.5 3.2 19.3l3.8 17.2c-31.2 32.6-32.8 34-36 34-1.9 0-9.1-1.2-16-2.5-6.9-1.4-14.3-2.5-16.5-2.5l-4-0.1c-13 21.4-25.3 42.2-35.6 60.1-14.6 25.2-18.8 33.3-18.8 36-0.1 2.9 1.2 5 7.5 12.5 4.1 4.9 9.3 11.2 11.4 14l4 5c-2.3 7.7-5.2 18.8-8 29.5-2.7 10.7-5.6 20-6.3 20.6-0.6 0.6-7.9 3.4-16.2 6.3-8.2 2.9-15.9 5.8-17 6.5-1.9 1.3-2 2.8-2.7 36.2-0.4 19.2-0.4 45.7 0 58.9l0.7 24c10.1 4 18.1 6.9 24.4 9.1 6.2 2.1 11.7 4.6 12.1 5.4 0.4 0.8 2.4 7.8 4.5 15.5 2 7.7 5 18.2 6.6 23.2l2.9 9.3c-22.4 26.6-24 29-24 32 0 2.6 3.1 8.8 11.7 24 6.4 11.3 16.9 29 23.3 39.5 6.4 10.5 13.3 22 15.3 25.7l3.7 6.8c7.4 0 15.1-1.1 22-2.5 6.9-1.3 13.8-2.5 15.5-2.5 2.6 0 5.1 2.1 18.8 16.7 10.9 11.6 15.8 17.5 15.7 19 0 1.3-1.2 7.6-2.6 14-1.4 6.5-2.5 14-2.5 16.8 0 2.9 0.5 5.5 1.3 6.1 0.7 0.6 8.7 5.6 17.8 11.1 9.1 5.5 25.1 14.8 35.5 20.8 10.4 5.9 23.9 13.9 30 17.8 9.4 6 11.4 6.9 14 6.4 1.9-0.4 5.6-3.3 10-7.8 3.9-3.9 9.6-9.3 12.8-12l5.7-4.9c20.5 5.4 31.9 8.1 38.5 9.6 6.6 1.4 12.5 3.1 13.1 3.7 0.7 0.7 3.7 9 6.8 18.4 4.7 14.6 6 17.4 7.9 18 1.2 0.3 27.8 0.6 59.2 0.6 48.6 0 57.1-0.3 58-1.5 0.5-0.8 2.7-6.6 4.7-12.9 2.1-6.3 4.4-14 5.3-17.2 1.1-4.2 2.1-5.9 3.8-6.6 1.2-0.5 12.9-3.5 25.9-6.7l23.8-5.9c5 4.6 10.9 10.2 16.2 15.2 8.8 8.4 10.2 9.3 13.6 9.3 2.8 0 7.1-2 18.7-8.9 8.3-4.8 29.6-17.3 47.4-27.7 20.7-12.1 32.7-19.6 33.1-20.9 0.4-1.1-0.4-6.3-1.6-11.5-1.3-5.2-3.1-12.9-4.1-17.1l-1.8-7.6c30.1-31.3 33.5-34.3 35.8-34.3 1.5 0 8.7 1.2 16 2.6 7.2 1.4 15.2 2.4 17.6 2.2 4.3-0.3 4.6-0.5 7.9-6.3 1.9-3.3 7.4-12.3 12.2-20 4.8-7.7 14.5-24.1 21.5-36.5 7-12.4 13.6-23.7 14.6-25.3 1.1-1.6 1.9-4.4 1.9-7 0-3.9-0.8-5.2-11.5-18.2-8.7-10.5-11.4-14.5-11-16 0.3-1.1 3.1-11.7 6.1-23.5 3.1-11.8 5.9-22.1 6.3-22.8 0.3-0.7 8.7-4.2 18.6-7.8 9.9-3.6 18.2-6.7 18.5-7 0.3-0.3 0.5-26.8 0.5-58.9 0-46.7-0.3-58.7-1.3-59.7-0.7-0.7-9-4-18.5-7.3l-17.2-6c-3.5-13.2-6.4-23.5-8.7-31.5-2.2-8-4.2-15.5-4.4-16.8-0.3-1.6 2.5-5.6 11.1-15.7 6.3-7.4 11.9-14.5 12.4-15.8 0.7-1.7 0.4-3.2-1.3-6.2-1.2-2.2-9.3-16.1-17.8-31-8.6-14.9-20-34.4-25.5-43.5-8.6-14.1-10.4-16.6-12.9-17.1-1.6-0.3-9.2 0.7-16.9 2.3-7.7 1.5-15.6 2.7-17.5 2.5-3.1-0.2-5.4-2.2-20-17l-16.5-16.9c5.7-22.7 7.5-30.2 7.6-31.3 0.1-1.1 0.1-3 0-4.3-0.1-1.7-2.1-3.3-9.3-7.4-5.1-2.8-14.3-8.2-20.3-11.8-6-3.7-17.7-10.6-26-15.2-8.2-4.7-20.6-12-27.5-16.2-7.7-4.7-13.6-7.6-15.2-7.6-2.1 0-5.8 2.7-15 11-6.8 6-13.3 11.5-14.6 12.2-2 1.1-3.8 0.8-14-2.4-6.4-2.1-16.9-4.9-23.2-6.4-6.3-1.4-12.5-3-13.7-3.5-1.9-0.7-3.1-3.6-6.8-15.7-2.5-8.1-5.2-16.2-6-18-1.4-3-1.8-3.2-7.2-3.3-3.2-0.1-17.5-0.4-31.8-0.8-14.3-0.3-38.1-0.3-53 0.1z"/>
		<path id="Path 1" class="s1" d="m500 188.6c-3.6 0.2-11.7 0.8-18 1.4-6.3 0.6-16.9 2-23.5 3.1-6.6 1.1-17.4 3.4-24 5-6.6 1.6-17.6 4.8-24.5 7.1-6.9 2.2-17.2 6.1-23 8.5-5.8 2.4-16.1 7.3-23 10.9-6.9 3.6-18.1 10.3-25 14.9-6.9 4.5-16.3 11.3-21 15-4.7 3.6-13.4 11-19.4 16.3-5.9 5.3-16.5 16.1-23.5 23.8-6.9 7.8-16.3 19.3-20.8 25.5-4.5 6.3-11.1 16.3-14.8 22.4-3.6 6.1-9 15.7-11.9 21.5-3 5.8-7.5 15.4-10.1 21.5-2.6 6.1-6.9 17.5-9.6 25.5-2.7 8-6.2 20.4-7.8 27.5-1.6 7.1-3.6 17.7-4.5 23.5-0.8 5.8-2 16.4-2.7 23.5-0.7 8.2-1 21.8-0.6 36.5 0.4 16.5 1.2 27.7 2.7 37.5 1.1 7.7 3 18.3 4.2 23.5 1.1 5.2 4 16 6.5 24 2.4 8 7 20.6 10 28 3.1 7.4 8.3 18.7 11.6 25 3.3 6.3 9.4 16.9 13.5 23.5 4.1 6.6 11.1 17 15.7 23 4.5 6 13.2 16.6 19.2 23.5 6.1 6.9 14.8 15.9 19.4 20.1 4.6 4.2 12 10.7 16.4 14.3 4.4 3.7 15 11.4 23.5 17.1 8.5 5.7 20.9 13.3 27.5 16.9 6.6 3.6 17.2 8.7 23.5 11.4 6.3 2.8 16 6.6 21.5 8.5 5.5 1.9 15.2 4.8 21.5 6.5 6.3 1.7 16.2 4 22 5.1 5.8 1.1 15.8 2.7 22.3 3.6 6.4 0.8 19.5 1.8 29 2.1 10.3 0.4 23.2 0.2 32.2-0.5 8.3-0.7 21.3-2.3 29-3.6 7.7-1.3 20.3-3.9 28-5.9 7.7-1.9 18.5-5.1 24-6.9 5.5-1.9 13.4-4.8 17.5-6.5 4.1-1.7 10.9-4.6 15-6.5 4.1-1.9 12.9-6.5 19.5-10.2 6.6-3.7 16.7-10 22.5-13.8 5.8-3.9 15.9-11.5 22.5-16.8 6.6-5.3 18.3-16.1 26-24 7.7-7.9 16.8-17.8 20.1-21.9 3.4-4.1 10.8-14.5 16.6-23 5.8-8.5 13.5-20.9 17.1-27.5 3.6-6.6 8.7-16.7 11.3-22.5 2.5-5.8 6.4-15.1 8.5-20.7 2.1-5.7 5.5-15.6 7.4-22 1.9-6.5 4.3-16 5.5-21 1.1-5.1 2.9-15.5 4-23 1.2-7.6 2.4-20.8 2.9-29.3 0.5-8.5 0.5-23.1 0-32.5-0.4-9.4-1.5-22.4-2.4-29-0.9-6.6-2.7-17.4-4.1-24-1.4-6.6-3.8-16.6-5.5-22.2-1.6-5.7-5-16-7.5-23-2.5-7.1-7.5-18.9-11-26.3-3.6-7.4-8.8-17.6-11.6-22.5-2.9-4.9-7.9-13.1-11.2-18-3.2-4.9-8.6-12.6-11.9-17-3.4-4.4-9.8-12.3-14.3-17.5-4.5-5.2-12.8-14-18.5-19.5-5.7-5.5-15.1-13.9-20.9-18.6-5.8-4.7-14.8-11.5-20-15.1-5.2-3.6-13.1-8.7-17.5-11.3-4.4-2.6-13.7-7.6-20.8-11.1-7-3.5-17.1-8.1-22.5-10.3-5.3-2.1-14.7-5.5-20.7-7.4-6-2-15.5-4.7-21-6.1-5.5-1.3-14.7-3.4-20.5-4.5-5.8-1.1-16.6-2.6-24-3.5-7.4-0.8-19.4-1.7-26.5-1.9-7.1-0.2-15.9-0.3-19.5-0.1z"/>
		<path id="Path 2" class="s0" d="m494.5 218.6c-2.8 0.2-9.5 0.9-15 1.4-5.5 0.6-16.5 2.4-24.5 4-8 1.6-20.4 4.7-27.5 6.9-7.1 2.2-18.2 6.1-24.5 8.6-6.3 2.6-16.9 7.4-23.5 10.8-6.6 3.4-17.4 9.8-24 14.2-6.6 4.4-17.6 12.6-24.5 18.1-6.9 5.6-18.6 16.4-26 24-7.4 7.7-16.6 18-20.5 22.9-3.8 4.9-10.4 14.2-14.6 20.5-4.2 6.3-10.5 16.4-13.8 22.5-3.4 6.1-8.3 16.2-11 22.5-2.7 6.3-6.7 16.9-8.9 23.5-2.2 6.6-5.2 16.7-6.6 22.5-1.4 5.8-3.4 16.1-4.5 23-1.1 6.9-2.5 17.9-3.1 24.5-0.5 6.6-1 16.9-1 23 0 6 0.5 16.9 1 24 0.6 7.1 2 18.6 3.1 25.5 1.1 6.9 3.3 17.7 4.9 24 1.6 6.3 4.5 16 6.4 21.5 1.9 5.5 5.2 14 7.2 19 2.1 5 6.5 14.4 9.9 21 3.4 6.6 8.9 16.5 12.4 22 3.4 5.5 7.7 11.8 9.6 14l3.4 4c-5.2-12.6-5.4-14.2-5.7-31.5l-0.4-18.5c-4.4-5.4-7-9.9-8.7-13.5-1.7-3.6-3.8-9.6-4.6-13.5-1.4-6-1.6-14.5-1.2-58.5 0.3-49.1 0.4-51.9 2.5-59.7 1.2-4.6 3.6-11 5.2-14.3l3-6c-7-7.7-10.4-13-12.2-16.7-2.7-5.8-3.1-7.9-3.1-14.3 0-5.3 0.7-9.2 2.3-13.5 1.7-4.5 4-7.7 8.9-12.6 5.4-5.4 8.1-7.2 14.9-10 4.5-1.9 8.5-4.1 8.7-4.9 0.3-0.8 3-5.8 6.1-11 3.1-5.2 9.1-14.4 13.4-20.5 4.3-6.1 12-15.9 17.2-22 5.2-6.1 13.7-14.8 18.9-19.5 5.2-4.7 11.7-10.4 14.4-12.6 2.7-2.3 9.7-7.4 15.5-11.4 5.8-4 15.4-10 21.5-13.2 6.1-3.3 15.5-7.9 21-10.2 5.5-2.4 13.6-5.5 18-6.9 4.4-1.5 12.7-3.8 18.5-5.1 5.8-1.4 15.8-3.2 22.3-4.1 6.4-0.8 13.1-1.5 14.7-1.5h3v29h38v-28.5c14.3 1.1 23.5 2.3 29.5 3.4 6 1.1 15.3 3.3 20.5 4.9 5.2 1.6 14 4.6 19.5 6.7 5.5 2 14.3 5.8 19.5 8.4 5.2 2.6 14.4 7.6 20.4 11.1 5.9 3.6 15.4 9.9 21 14.1 5.5 4.2 15.7 13.2 22.7 20 6.9 6.8 16.1 16.9 20.5 22.4 4.5 5.5 11 14.3 14.6 19.5 3.6 5.2 9 13.7 11.9 18.8l5.4 9.4c10.9 4.2 16.1 6.8 18.8 8.6 2.6 1.8 6.3 5.3 8.1 8 1.9 2.6 4.5 7.8 5.7 11.7 1.7 5.4 2.1 8.6 1.8 14-0.4 5.2-1.3 8.7-3.7 13.5-1.7 3.6-4.7 8.3-6.5 10.5l-3.4 4c3.9 9.3 5.8 16.1 6.8 21 1.7 8.1 1.9 14.3 1.9 60.5 0 48-0.1 52.1-2 59.8-1.1 4.5-3.2 10.6-4.6 13.5-1.5 2.8-3.9 6.8-5.4 8.7-2.8 3.5-2.8 3.7-3.2 21.5-0.4 15.3-0.8 18.9-2.6 23.8-1.2 3.1-1.7 5.5-1.2 5.2 0.5-0.3 4.2-5.3 8.2-11.2 3.9-6 10.2-16.7 13.9-23.8 3.7-7.1 9.2-19.1 12.3-26.5 3-7.4 7-18.7 8.9-25 1.9-6.3 4.7-16.9 6.2-23.5 1.4-6.6 3.4-17 4.3-23 1.2-8.2 1.7-17.9 1.6-38.5 0-20.9-0.4-30.5-1.7-40-1-6.9-2.9-17.7-4.2-24-1.4-6.3-3.8-16.2-5.6-22-1.7-5.8-5.1-15.7-7.6-22-2.5-6.3-6.9-16.2-9.8-22-2.9-5.8-7.6-14.6-10.5-19.5-2.9-4.9-7.8-12.6-10.8-17-3.1-4.4-9.7-13.2-14.8-19.5-5-6.3-15.6-17.8-23.6-25.5-7.9-7.7-17.7-16.7-21.8-20-4.1-3.3-11.8-9-17-12.6-5.2-3.7-14.2-9.4-20-12.7-5.8-3.3-15.9-8.5-22.5-11.5-6.6-3-18.1-7.6-25.5-10.1-7.4-2.6-19.8-6.2-27.5-8.1-7.7-1.9-20.3-4.4-28-5.5-8.6-1.2-21.3-2.2-33-2.4-10.4-0.2-21.2-0.2-24 0zm-91.5 100.4c-9.8 0.5-17.5 1.4-21 2.5-3 0.9-8.2 3.1-11.4 4.8-3.6 2-8.3 5.8-11.9 9.7-3.2 3.6-7.5 9.4-9.5 13-2 3.6-9.2 19.8-15.9 36-6.8 16.2-12.3 29.6-12.3 29.8 0 0.1-2.4 0.2-5.2 0.2-2.9 0-9.4 0.5-14.3 1-4.9 0.5-11.2 1.8-13.9 2.7-2.7 1-6.9 3.6-9.3 5.8-2.4 2.2-5.1 5.8-6 8-0.9 2.4-1.3 6-1.1 9 0.2 3.2 1.3 6.5 3.1 9.3 1.5 2.3 4.6 5.6 7 7.3 2.3 1.6 6.6 3.7 9.5 4.5l5.2 1.4c-8.4 8.9-12.2 14.4-13.9 18-1.7 3.6-3.9 9.9-4.8 14-1.6 6.6-1.8 13.3-1.8 58 0 46.5 0.1 51 1.9 56.5 1 3.3 2.5 7.1 3.4 8.5 0.9 1.4 3.2 4.3 5.3 6.5l3.8 4c0.6 41.1 0.8 43.4 2.7 47 1.2 2.2 3.7 5.3 5.5 6.9 1.9 1.6 4.9 3.5 6.7 4.3 2.4 1 10.3 1.3 33 1.3 29.2 0 29.8 0 34.2-2.3 2.5-1.3 5.8-4.2 7.5-6.6 3-4.3 3-4.3 3.5-21.4l0.5-17.2c196.1-0.4 254-0.3 255.3 0 2.1 0.5 2.2 0.8 2.2 14 0 7.4 0.5 15.4 1 17.8 0.6 2.3 2.5 6 4.3 8.1 1.7 2.2 5 4.8 7.2 5.8 3.6 1.6 7.3 1.8 34.2 1.8 23.5 0 31-0.3 33.5-1.4 1.8-0.7 4.3-2.4 5.5-3.7 1.2-1.3 3.2-4.6 4.5-7.4 2-4.6 2.3-6.8 2.6-26l0.4-21c7.7-8.5 10.9-13.5 12.1-16.5 2.2-5.4 2.2-6.4 2.2-60 0-48.9-0.2-55.1-1.8-60.8-0.9-3.4-2.7-8.3-4-10.9-1.2-2.6-4.6-7.4-7.5-10.5-2.8-3.2-5-6.2-4.7-6.8 0.3-0.6 1.2-1 2-1 0.8 0 3.9-1.1 6.7-2.4 3.1-1.4 6.9-4.2 9-6.8 2.1-2.3 4.3-6.1 4.9-8.3 0.6-2.2 0.8-5.8 0.5-8-0.4-2.2-1.7-5.8-2.9-7.9-1.2-2.2-4.1-5.5-6.5-7.3-2.3-1.8-6.1-3.8-8.5-4.4-2.3-0.7-10.7-1.7-18.6-2.3l-14.4-1.1c-4.2-10.1-10-24-15.6-37.5-5.6-13.5-12.1-27.6-14.5-31.5-2.4-3.9-6.8-9.3-9.9-12-3-2.8-8.4-6.4-11.9-8.2-3.4-1.7-9.2-4-12.8-4.9-6-1.6-15-1.8-113-1.9-58.6-0.1-113.5 0.1-122 0.5zm90 413v32c-3.9 0-9.6-0.7-15.3-1.5-5.6-0.9-15.4-2.7-21.7-4.1-6.3-1.5-16.4-4.3-22.5-6.4-6.1-2.1-15.3-5.7-20.5-8-5.2-2.2-13.1-6.1-17.5-8.5-4.4-2.4-12.7-7.4-18.5-11.2-5.8-3.8-14.1-9.5-18.5-12.7l-8-5.7c-43.5 0-49.8-0.3-52.8-1.4-2.1-0.9-3.7-1.1-3.7-0.5 0 0.5 1.7 3.1 3.8 5.7 2.2 2.7 8.8 9.5 14.8 15.3 6 5.8 13.4 12.6 16.4 15.1 3 2.5 9.6 7.5 14.5 11.1 4.9 3.5 13.9 9.5 20 13.3 6.1 3.8 17.3 9.9 25 13.6 7.7 3.7 18.3 8.3 23.5 10.2 5.2 1.9 15.1 5.1 22 7.1 6.9 2 18.4 4.8 25.5 6.1 7.1 1.3 17.9 2.8 24 3.4 6.1 0.6 19.4 1.1 29.7 1.1 10.4 0 23.2-0.5 28.5-1.1 5.4-0.6 15.7-2.1 22.8-3.4 7.1-1.3 18.6-4 25.5-6 6.9-2 17.9-5.7 24.5-8.2 6.6-2.5 18.5-7.8 26.5-11.9 8-4 20.6-11.3 28-16.2 7.4-4.9 18.2-12.7 24-17.3 5.7-4.6 15.4-13.2 21.5-19 6-5.8 12.9-13 15.2-16 2.3-3 4.3-5.7 4.3-6.2 0-0.4-1 0-2.3 0.8-1.2 0.8-4.5 2.1-7.2 3-3.8 1.1-10.2 1.5-27.8 1.5h-22.7c-17.4 12.3-27.7 19-34 22.8-6.3 3.8-16.9 9.4-23.5 12.5-6.6 3-16.5 7.1-22 9.2-5.5 2-15 5-21 6.5-6 1.6-17.3 3.8-25 4.9-7.7 1.2-14.8 2.1-15.8 2.1-1.6 0-1.7-2.2-1.7-32v-32h-38z"/>
		<path id="Path 3" class="s1" d="m401 497.9c-2 2.1-2.9 4-2.9 6.5-0.1 2.7 0.6 4.3 2.9 6.6l3 3h216.2c5-5.2 5.8-7 5.8-9.5 0-2.6-0.8-4.3-3-6.5l-3-3h-216.2zm2.4 37.1c-1.2 0.4-2.9 1.9-3.8 3.2-0.8 1.2-1.6 3.7-1.6 5.5 0 2 1 4.4 2.5 6.3l2.5 3h218c4.4-4.7 5.1-6.6 5.1-9.3q-0.1-3.7-2.5-6.5l-2.4-2.7c-167.3-0.3-216.6 0-217.8 0.5zm-2.9 42.1c-1.9 2.1-2.7 4.1-2.6 6.5 0.1 2.3 1.1 4.3 3.1 6.4l3 3h216.2c5.1-5.2 5.9-7 5.9-9.8 0-2.8-0.7-4.4-2.8-6.5l-2.8-2.8-217.3 0.1z"/>
		<path id="Path 4" class="s2" d="m388.6 359.3c-2.2 1.2-4.7 3.3-5.7 4.7-1 1.4-8.4 18.8-16.4 38.7-8 20-14.5 37.3-14.5 38.5 0 1.3 0.5 2.9 1.2 3.6 1 1 32.9 1.2 158.3 1.2l157 0.1c3.7-3.9 3.8-4.7 2.9-7.4-0.6-1.8-7.3-18.9-15-38.2-7.6-19.2-14.7-36-15.7-37.2-0.9-1.3-3.5-3.2-5.7-4.3-3.9-2-6-2-123.3-2h-119.2zm-58.8 130.5c-2.6 1-6.7 3.2-9.2 5-2.5 1.8-6 5.4-7.6 8-1.7 2.6-3.8 7.2-4.7 10.3-1 3.5-1.4 7.6-1.1 11.5 0.3 3.3 1.6 8.4 3 11.5 1.3 3 4 7.3 6 9.5 1.9 2.2 5.7 5.2 8.4 6.6 2.7 1.5 7.6 3.2 10.9 3.8 4.2 0.8 7.6 0.8 11.3 0.1 2.8-0.6 7.3-2.1 10-3.4 2.6-1.4 6.6-4.4 8.9-6.8 2.3-2.4 5.2-6.6 6.5-9.3 1.9-4.1 2.3-6.8 2.3-14 0-8-0.4-9.8-3-15.4-1.7-3.7-4.7-7.9-7-10-2.2-1.9-6.5-4.6-9.5-6-3.9-1.8-7.7-2.6-13-2.8-5.4-0.3-8.8 0.1-12.2 1.4zm342.7 0c-2.8 1-7 3-9.3 4.5-2.3 1.5-5.7 4.9-7.6 7.5-1.9 2.6-4.2 7.2-5 10.3-0.9 3-1.6 7.3-1.6 9.5 0 2.2 0.7 6.4 1.5 9.5 0.9 3 2.6 7.3 3.9 9.5 1.3 2.2 4.3 5.7 6.7 7.8 2.4 2 6.9 4.7 9.9 5.8 3.6 1.4 7.9 2.1 12.5 2.1 4.6 0 8.9-0.7 12.5-2.1 3-1.1 7.5-3.8 10-5.9 2.5-2.2 5.7-6.4 7.2-9.3 1.5-3 3-7.9 3.5-10.9 0.5-3.1 0.5-8.2 0.1-11.5-0.5-3.4-2.1-8.2-3.6-10.9-1.5-2.7-4.7-6.7-7.2-8.8-2.5-2.2-6.5-4.9-9-6-2.8-1.3-7.3-2.2-12-2.5-5.5-0.3-8.8 0.1-12.5 1.4z"/>
	</g>
</svg>